<svg width="40" height="40" xmlns="http://www.w3.org/2000/svg"><g transform="translate(1 1)" fill="none" fill-rule="evenodd"><circle stroke="#136C85" fill="#FFF" cx="19" cy="19" r="19"/><g fill="#136C85" fill-rule="nonzero"><path d="M18.432 19.976c.195 0 .408-.034.637-.101.23-.068.474-.169.733-.304.26-.135.48-.257.663-.365.183-.11.412-.252.688-.428.276-.176.457-.29.542-.343.781-.48 2.77-1.698 5.964-3.655a5.748 5.748 0 001.555-1.383c.416-.54.625-1.105.625-1.698 0-.495-.202-.918-.606-1.27A2.109 2.109 0 0027.8 9.9H9.04c-.654 0-1.157.195-1.51.585-.353.39-.529.877-.529 1.462 0 .472.234.984.701 1.535.467.55.964.984 1.491 1.298.289.18 1.16.715 2.613 1.603a639.29 639.29 0 013.339 2.052l.542.343c.276.176.505.319.688.428.182.108.403.23.662.365.26.135.504.236.733.304.23.067.442.1.638.1h.025z"/><path d="M27.8 25.628c.56 0 1.04-.176 1.44-.528.399-.353.599-.776.599-1.271V14.9c-.366.36-.79.686-1.275.978-2.787 1.665-4.902 2.958-6.347 3.88-.484.315-.877.56-1.179.737a7.689 7.689 0 01-1.204.54c-.501.183-.969.275-1.402.275h-.025c-.434 0-.901-.092-1.402-.276a7.689 7.689 0 01-1.205-.54 30.462 30.462 0 01-1.179-.736c-1.147-.742-3.258-2.035-6.334-3.88A6.6 6.6 0 017 14.9v8.929c0 .495.2.918.599 1.27.4.353.88.53 1.44.53H27.8z"/></g></g></svg>