<?xml version="1.0" encoding="UTF-8"?>
<svg width="40px" height="40px" viewBox="0 0 40 40" version="1.1" xmlns="http://www.w3.org/2000/svg" xmlns:xlink="http://www.w3.org/1999/xlink">
    <!-- Generator: Sketch 52.2 (67145) - http://www.bohemiancoding.com/sketch -->
    <title>Group 13</title>
    <desc>Created with Sketch.</desc>
    <g id="Page-1" stroke="none" stroke-width="1" fill="none" fill-rule="evenodd">
        <g id="QAVS_news-2-UI_11-05-2021" transform="translate(-149.000000, -2177.000000)">
            <g id="Group-13" transform="translate(150.000000, 2178.000000)">
                <circle id="Oval" stroke="#136C85" fill="#FFFFFF" cx="19" cy="19" r="19"></circle>
                <g id="Group-26" transform="translate(9.000000, 7.000000)" fill="#136C85" fill-rule="nonzero">
                    <path d="M2.34811745,4.42643052 C3.06276189,4.42643052 3.63915666,4.21503179 4.07730177,3.79223433 C4.51544687,3.36943688 4.73026558,2.84309718 4.72175791,2.21321526 C4.71325024,1.57470481 4.49630461,1.04620799 4.07092101,0.627724796 C3.64553742,0.209241599 3.07977723,0 2.37364046,0 C1.6675037,0 1.09536276,0.209241599 0.657217655,0.627724796 C0.219072552,1.04620799 0,1.57470481 0,2.21321526 C0,2.84309718 0.212691798,3.36943688 0.638075394,3.79223433 C1.06345899,4.21503179 1.62496534,4.42643052 2.32259443,4.42643052 L2.34811745,4.42643052 Z M10.9748968,19 L10.9748968,11.8426431 C10.9748968,11.4025886 11.021689,11.0531335 11.1152734,10.7942779 C11.2939345,10.3542234 11.5640531,9.98535422 11.9256291,9.6876703 C12.2872052,9.38998638 12.7359849,9.24114441 13.2719682,9.24114441 C14.003628,9.24114441 14.5417382,9.49784287 14.8862989,10.0112398 C15.2308596,10.5246367 15.40314,11.2343324 15.40314,12.140327 L15.40314,19 L19.6016761,19 L19.6016761,11.6485014 C19.6016761,9.75885559 19.1592772,8.32436421 18.2744793,7.34502725 C17.3896814,6.36569028 16.2198765,5.8760218 14.7650646,5.8760218 C14.2290813,5.8760218 13.7420171,5.94289282 13.303872,6.07663488 C12.8657269,6.21037693 12.4956431,6.39804723 12.1936208,6.63964578 C11.8915984,6.88124432 11.6512567,7.10558583 11.4725956,7.3126703 C11.2939345,7.51975477 11.1195272,7.76135332 10.9493738,8.03746594 L10.9748596,7.99771514 L10.9748968,6.17370572 L6.77636068,6.17370572 L6.78912219,6.79495913 C6.79628654,7.14373297 6.80043433,8.10439075 6.80156554,9.67693245 L6.8014849,11.459011 C6.79962385,13.4739051 6.79124911,15.9875681 6.77636068,19 L10.9748968,19 Z M4.45376625,19 L4.45376625,6.17370572 L0.24246865,6.17370572 L0.24246865,19 L4.45376625,19 Z" id=""></path>
                </g>
            </g>
        </g>
    </g>
</svg>