<?xml version="1.0" encoding="UTF-8"?>
<svg width="40px" height="40px" viewBox="0 0 40 40" version="1.1" xmlns="http://www.w3.org/2000/svg" xmlns:xlink="http://www.w3.org/1999/xlink">
    <!-- Generator: Sketch 52.2 (67145) - http://www.bohemiancoding.com/sketch -->
    <title>Group 3</title>
    <desc>Created with Sketch.</desc>
    <g id="Page-1" stroke="none" stroke-width="1" fill="none" fill-rule="evenodd">
        <g id="QAVS_news-2-UI_11-05-2021" transform="translate(-628.000000, -2177.000000)">
            <g id="Group-3" transform="translate(629.000000, 2178.000000)">
                <circle id="Oval-Copy-8" stroke="#136C85" fill="#FFFFFF" cx="19" cy="19" r="19"></circle>
                <g id="Group-22" transform="translate(7.000000, 9.000000)" fill="#136C85" fill-rule="nonzero">
                    <g id="Group-17" transform="translate(0.000000, 0.450000)">
                        <g id="Group-21">
                            <g id="Group-24" transform="translate(0.000000, 0.450000)">
                                <g id="Group-25">
                                    <path d="M11.4320455,10.0758536 C11.627465,10.0758536 11.8398776,10.0421174 12.0692832,9.97464521 C12.2986888,9.90717297 12.5429633,9.80596462 12.8021066,9.67102016 C13.06125,9.53607569 13.2821591,9.41425082 13.4648339,9.30554556 C13.6475087,9.19684029 13.8769143,9.05439891 14.1530507,8.87822141 C14.4291871,8.70204391 14.6097378,8.58771596 14.6947028,8.53523756 C15.4763811,8.05543501 17.4645629,6.83718634 20.6592483,4.88049157 C21.279493,4.49814891 21.7977797,4.03708865 22.2141084,3.49731078 C22.6304371,2.95753291 22.8386014,2.39151584 22.8386014,1.79925956 C22.8386014,1.30446318 22.6368094,0.880887495 22.2332255,0.528532497 C21.8296416,0.176177499 21.3517133,0 20.7994406,0 L2.03916084,0 C1.38493007,0 0.881512238,0.194919786 0.528907343,0.584759358 C0.176302448,0.97459893 0,1.4618984 0,2.04665775 C0,2.51896339 0.233653846,3.03062783 0.700961538,3.58165107 C1.16826923,4.13267431 1.66531469,4.56562114 2.1920979,4.88049157 C2.48097902,5.06041752 3.35187063,5.59457271 4.80477273,6.48295712 C6.25767483,7.37134153 7.37071678,8.05543501 8.1438986,8.53523756 C8.22886364,8.58771596 8.40941434,8.70204391 8.6855507,8.87822141 C8.96168706,9.05439891 9.19109266,9.19684029 9.37376748,9.30554556 C9.55644231,9.41425082 9.7773514,9.53607569 10.0364948,9.67102016 C10.2956381,9.80596462 10.5399126,9.90717297 10.7693182,9.97464521 C10.9987238,10.0421174 11.2111364,10.0758536 11.4065559,10.0758536 L11.4320455,10.0758536 Z" id="Path"></path>
                                    <path d="M20.7994406,15.7280852 C21.3602098,15.7280852 21.8402622,15.5519077 22.2395979,15.1995527 C22.6389336,14.8471977 22.8386014,14.423622 22.8386014,13.9288256 L22.8386014,5 C22.4732517,5.35985191 22.0484266,5.68596771 21.5641259,5.97834739 C18.7772727,7.64266248 16.6616434,8.9358803 15.2172378,9.85800082 C14.7329371,10.1728712 14.3399738,10.4183952 14.0383479,10.5945727 C13.736722,10.7707502 13.3352622,10.9506762 12.8339685,11.1343506 C12.3326748,11.318025 11.8653671,11.4098622 11.4320455,11.4098622 L11.4065559,11.4098622 C10.9732343,11.4098622 10.5059266,11.318025 10.0046329,11.1343506 C9.50333916,10.9506762 9.10187937,10.7707502 8.8002535,10.5945727 C8.49862762,10.4183952 8.10566434,10.1728712 7.62136364,9.85800082 C6.47433566,9.11580625 4.36295455,7.82258844 1.28722028,5.97834739 C0.80291958,5.69346462 0.373846154,5.36734883 0,5 L0,13.9288256 C0,14.423622 0.199667832,14.8471977 0.599003497,15.1995527 C0.998339161,15.5519077 1.47839161,15.7280852 2.03916084,15.7280852 L20.7994406,15.7280852 Z" id="Path"></path>
                                </g>
                            </g>
                        </g>
                    </g>
                </g>
            </g>
        </g>
    </g>
</svg>