<svg width="40" height="40" xmlns="http://www.w3.org/2000/svg"><g transform="translate(1 1)" fill="none" fill-rule="evenodd"><circle stroke="#136C85" fill="#FFF" cx="19" cy="19" r="19"/><path d="M11.348 11.426c.715 0 1.291-.211 1.73-.634.437-.423.652-.949.644-1.579-.009-.638-.226-1.167-.651-1.585C12.646 7.209 12.08 7 11.374 7c-.706 0-1.279.21-1.717.628C9.22 8.046 9 8.575 9 9.213c0 .63.213 1.156.638 1.58.425.422.987.633 1.685.633h.025zM19.975 26v-7.157c0-.44.047-.79.14-1.049a2.75 2.75 0 01.81-1.106c.362-.298.811-.447 1.347-.447.732 0 1.27.257 1.614.77.345.514.517 1.223.517 2.13V26h4.199v-7.351c0-1.89-.443-3.325-1.328-4.304-.884-.98-2.054-1.469-3.509-1.469-.536 0-1.023.067-1.461.2a3.298 3.298 0 00-1.11.564 5.471 5.471 0 00-.721.673 5.63 5.63 0 00-.524.724l.026-.04v-1.823h-4.199l.013.621c.007.349.011 1.31.013 2.882v1.782c-.002 2.015-.01 4.529-.026 7.541h4.199zm-6.521 0V13.174H9.242V26h4.212z" fill="#136C85" fill-rule="nonzero"/></g></svg>