<svg width="18" height="18" fill="none" xmlns="http://www.w3.org/2000/svg"><path fill-rule="evenodd" clip-rule="evenodd" d="M2.125 4.003c.647 0 1.169-.191 1.565-.574.397-.382.591-.858.583-1.428C4.266 1.424 4.07.946 3.684.568 3.3.189 2.787 0 2.148 0S.991.19.595.568C.198.946 0 1.424 0 2c0 .57.192 1.046.577 1.428.385.383.894.574 1.525.574h.023zm7.808 13.179v-6.473c0-.398.042-.714.127-.948.162-.398.406-.731.733-1 .327-.27.734-.404 1.219-.404.662 0 1.149.232 1.46.696.313.464.469 1.106.469 1.926v6.203h3.8v-6.648c0-1.709-.401-3.006-1.202-3.892-.8-.885-1.86-1.328-3.176-1.328-.485 0-.926.06-1.322.181-.397.121-.732.29-1.005.51-.274.218-.491.42-.653.608a5.022 5.022 0 00-.45.618V5.583h-3.8l.011.562c.007.315.01 1.184.012 2.606v1.612c-.002 1.822-.01 4.095-.023 6.819h3.8zM4.03 5.582v11.6H.219v-11.6h3.812z" fill="#fff"/></svg>