<?xml version="1.0" encoding="UTF-8"?>
<svg width="622px" height="377px" viewBox="0 0 622 377" version="1.1" xmlns="http://www.w3.org/2000/svg" xmlns:xlink="http://www.w3.org/1999/xlink">
    <!-- Generator: Sketch 52.2 (67145) - http://www.bohemiancoding.com/sketch -->
    <title>Group 32</title>
    <desc>Created with Sketch.</desc>
    <g id="Page-1" stroke="none" stroke-width="1" fill="none" fill-rule="evenodd">
        <g id="3" transform="translate(-818.000000, -298.000000)">
            <g id="Group-32" transform="translate(818.000000, 298.000000)">
                <path d="M338.543015,77.3888096 C336.27602,79.7044346 329.157657,83.1097653 324.351629,85.7886255 C319.545601,88.3766769 316.961227,90.1928533 314.331513,90.3290665 C311.747139,90.4198754 309.072086,88.7399122 305.716934,86.1972652 C302.452462,83.8362359 298.598571,80.5671184 297.737113,77.979067 C296.875655,75.3456112 299.05197,73.3478171 300.865566,70.0332952 C302.633821,66.7187732 303.948678,62.1783322 304.266057,56.3211633 C304.492757,50.41859 303.585959,43.3809064 300.548186,37.7053551 C297.329054,32.0298039 291.978947,27.7617893 287.036899,25.8093997 C282.140191,23.85701 277.787561,24.2656497 274.16037,25.4915688 C270.533179,26.7628923 267.631426,28.9877084 265.99919,32.2568259 C264.457634,35.5713479 264.049575,39.9755756 263.868215,44.5160167 C263.596176,49.1018621 263.369476,53.8693252 262.598698,58.6821926 C261.73724,63.4496557 260.150344,68.353332 258.110049,72.0764936 C255.933734,75.7996553 253.30402,78.3877067 250.764987,81.6568242 C248.180613,84.9713461 245.868278,89.0123387 242.694486,94.6878899 C239.566034,100.363441 235.712143,107.673551 233.535828,115.891749 C231.268834,124.019139 230.815435,133.19083 230.498055,142.998182 C230.089996,152.850939 229.908637,163.339358 230.044657,170.422446 C230.089996,177.550939 230.498055,181.2741 231.903592,184.497813 C233.354469,187.721526 235.848163,190.354982 237.616418,195.758107 C239.430014,201.070423 240.382152,209.016195 242.286427,216.68954 C244.145363,224.362885 246.865756,231.809209 248.770031,238.801488 C250.764987,245.748363 251.898484,252.195789 252.533242,258.552406 C253.122661,265.045237 253.122661,271.447259 252.442563,276.986597 C251.717124,282.480531 250.447607,287.020972 249.767509,292.56031 C249.042071,298.145052 249.042071,304.774096 249.042071,311.766375 C249.042071,318.667845 249.042071,325.977955 249.26877,331.78972 C249.586149,337.601484 250.039548,342.051117 249.586149,347.181815 C249.042071,352.357918 247.545854,358.305896 247.183135,362.528506 C246.865756,366.887329 247.727214,369.611594 251.898484,371.83641 C256.160434,374.197439 263.777535,376.05902 268.356864,376.694682 C272.845513,377.375748 274.38707,376.876299 274.704449,375.604976 C275.112508,374.379057 274.25105,372.335858 273.616291,370.565086 C273.072213,368.74891 272.664154,367.20516 273.616291,367.295969 C274.523089,367.432182 276.790084,369.066741 279.283778,370.156447 C281.868152,371.291557 284.724565,371.791005 289.031854,371.927219 C293.293804,372.154241 299.05197,371.927219 301.228285,371.01913 C303.495279,370.065638 302.089743,368.431079 298.371872,364.798726 C294.699341,361.166373 288.623795,355.536227 284.905924,351.949278 C281.278733,348.407734 280.099896,346.954793 280.598635,345.456447 C281.006694,344.048911 283.001649,342.641374 284.407185,341.279242 C285.722042,339.780896 286.402141,338.327955 287.671658,334.105345 C288.895835,330.018948 290.75477,323.253691 292.341666,315.534941 C293.837883,307.861596 295.06206,299.189353 296.104877,289.06417 C297.193035,278.893582 298.190512,267.224649 300.684206,255.237884 C303.08722,243.205716 307.031791,230.855716 310.069563,222.819136 C313.107336,214.782555 315.283651,211.013989 316.371808,210.060496 C317.505306,209.152408 317.505306,211.013989 317.777345,217.143584 C318.140064,223.227775 318.820162,233.534576 319.454921,243.65976 C319.999,253.64873 320.543078,263.501487 320.316379,272.173729 C319.999,280.755163 318.956182,288.246891 319.046862,294.648912 C319.137542,301.050934 320.407059,306.499463 321.948615,311.993397 C323.535511,317.487331 325.575806,323.072073 326.346584,329.610308 C327.162702,336.057735 326.573284,343.504058 324.442309,349.179609 C322.220654,354.85516 318.366763,358.714535 315.102291,360.984756 C311.928499,363.164167 309.389465,363.70902 309.616165,364.617109 C309.888204,365.570601 312.971316,366.887329 316.779867,367.659204 C320.724438,368.431079 325.439786,368.612697 330.019115,367.750013 C334.734464,366.887329 339.313793,365.025748 343.213024,364.11766 C347.202934,363.164167 350.648766,363.164167 352.553041,361.84744 C354.502656,360.439903 354.956055,357.715638 354.865375,353.084388 C354.820036,348.407734 354.139937,341.869499 353.595858,334.922624 C352.91576,327.97575 352.507701,320.711044 351.918283,311.357735 C351.464884,302.049831 350.966145,290.698729 351.147504,281.799464 C351.464884,272.809391 352.507701,266.225752 353.323819,263.501487 C354.139937,260.822627 354.820036,262.003142 356.452272,264.909024 C358.039168,267.86031 360.532862,272.627773 362.709176,278.848178 C364.840151,284.977773 366.517727,292.56031 367.379185,300.869317 C368.376663,309.178324 368.558022,318.122993 368.920741,327.294683 C369.37414,336.466374 370.008899,345.774278 371.323756,352.766557 C372.593273,359.758837 374.452208,364.480895 376.673863,367.840822 C379.031537,371.109939 381.706591,372.97152 384.699023,374.197439 C387.646116,375.332549 390.774569,375.831998 393.767002,376.05902 C396.759434,376.240638 399.389148,376.05902 399.887887,373.561777 C400.250606,371.109939 398.39167,366.342476 397.303513,359.758837 C396.170016,353.220602 395.897976,344.729977 395.807297,336.193948 C395.716617,327.657919 395.897976,318.985676 395.716617,308.270235 C395.535257,297.50939 395.081858,284.659942 394.991179,273.399648 C394.900499,262.09395 395.217878,252.51362 395.444577,244.340826 C395.716617,236.304245 395.897976,229.675201 394.900499,224.226672 C393.903021,218.823547 391.636027,214.600937 392.044086,209.697261 C392.361465,204.793585 395.217878,199.208842 397.620892,193.487887 C400.069246,187.721526 402.109541,181.728144 403.605758,176.733659 C404.965955,171.648365 405.827412,167.380351 407.00625,164.610682 C408.230427,161.795608 409.726643,160.47888 410.452081,155.575204 C411.222859,150.626123 411.222859,142.135499 410.180042,133.19083 C409.091885,124.200757 406.82489,114.711235 404.285856,107.76436 C401.656143,100.726676 398.61837,96.1862355 395.081858,91.7366033 C391.500007,87.3323755 387.464757,83.1097653 384.971063,80.9303536 C382.568049,78.7055375 381.706591,78.5693243 380.573093,76.5261258 C379.484936,74.5283318 378.170079,70.6235525 376.129784,67.2182218 C374.134829,63.8582954 371.414435,60.9524132 371.323756,57.8649133 C371.233076,54.8682222 373.72677,51.6899135 375.676385,48.0575607 C377.626,44.3798034 379.031537,40.3388109 379.258237,36.7064581 C379.484936,33.0287009 378.623478,29.8503922 376.764543,26.5358702 C374.905607,23.2213483 372.049194,19.8614219 368.875402,18.0452455 C365.656269,16.2290691 362.119758,16.1382603 358.492567,16.0474515 C354.956055,15.9566426 351.464884,15.9566426 348.60847,16.4106867 C345.706717,16.9555397 343.485063,17.9998411 341.354088,19.4981866 C339.313793,20.9965322 337.273498,23.085135 335.731942,24.8105026 C334.190385,26.5812746 333.192908,28.170429 333.873006,29.2147304 C334.598444,30.3044363 336.865439,31.0309068 337.998936,31.8935906 C339.132433,32.71087 338.905734,33.7551714 338.225636,35.6621567 C337.454857,37.6145463 336.049321,40.5204286 335.187863,43.3809064 C334.417085,46.2413842 334.009026,49.1018621 333.963686,51.5082958 C333.873006,53.8693252 334.009026,55.730906 333.873006,57.0476339 C333.736986,58.4551706 333.192908,59.27245 333.555627,60.2259426 C333.873006,61.1340308 335.006503,62.1783322 335.641262,63.0864204 C336.27602,64.039913 336.27602,64.8571924 336.140001,66.355538 C336.049321,67.8992879 335.867961,70.0332952 337.046798,71.894876 C338.316315,73.665648 340.764669,74.9823759 338.543015,77.3888096" id="Fill-595" fill="#8A0DA6"></path>
                <path d="M168.406207,44.5982338 C166.452726,43.0120384 164.173665,41.2445636 163.010878,39.1145298 C161.941115,37.0298158 161.941115,34.5372231 162.173672,30.2318356 C162.359718,25.9264481 162.778321,19.762946 162.452741,15.0043598 C162.080649,10.2004538 160.964375,6.75614379 158.731825,4.44483051 C156.452764,2.13351722 153.103939,0.90988078 149.801626,0.320722492 C146.452802,-0.223115928 143.243511,-0.0871563229 140.266778,0.819241043 C137.243534,1.72563841 134.452847,3.35715367 132.452855,6.30294511 C130.499374,9.24873655 129.383099,13.4634843 129.522633,18.0861109 C129.662167,22.6634176 131.057511,27.5579633 132.034251,31.5914316 C133.010992,35.6248999 133.569129,38.7972907 135.429587,41.6524424 C137.243534,44.552914 140.31329,47.1361465 142.173748,49.35682 C143.987695,51.6228134 144.545832,53.5715678 143.615603,55.4750022 C142.685374,57.3784367 140.31329,59.327191 137.801671,61.2759454 C135.290053,63.2700196 132.592389,65.3547335 129.662167,68.1192455 C126.731946,70.9290773 123.476144,74.5093469 120.685457,79.2226132 C117.848259,83.9358795 115.429663,89.8274624 113.290136,97.1239612 C111.15061,104.46578 109.150617,113.212514 106.871556,121.77797 C104.639006,130.298105 102.127388,138.636961 99.8948381,146.386658 C97.6622885,154.136356 95.662296,161.206255 93.2437005,167.777636 C90.8716165,174.349017 88.0809294,180.376559 86.1739598,184.545987 C84.3135017,188.715415 83.2902498,191.026728 81.8483948,193.9272 C80.3600283,196.782352 78.4065473,200.226662 76.6856236,203.353733 C75.0577228,206.526123 73.6158678,209.381275 72.3600586,211.420669 C71.1042494,213.505383 69.9879745,214.729019 67.0112416,215.182218 C64.0810201,215.680737 59.2438291,215.408818 56.453142,215.000939 C53.7089664,214.54774 52.8717602,214.049221 52.4066457,213.233464 C52.0345541,212.417706 52.0345541,211.284709 51.9415312,207.65912 C51.8950197,204.033531 51.7089739,197.870028 50.8252563,193.564641 C49.8950273,189.259253 48.220615,186.811981 45.8950424,185.271105 C43.5694698,183.775549 40.6392484,183.277031 38.1741414,183.50363 C35.7090345,183.775549 33.7555535,184.908546 31.4299809,187.627738 C29.1044083,190.34693 26.4532555,194.742958 25.2439578,198.141948 C24.03466,201.586258 24.3602402,204.033531 25.476515,206.299524 C26.7323242,208.565517 28.871851,210.604911 29.3369655,212.598986 C29.8485915,214.54774 28.6858052,216.496494 26.4532555,217.720131 C24.2207058,218.943767 20.8253698,219.487606 18.8718889,220.394003 C16.9184079,221.255081 16.313759,222.524037 15.4300414,224.336832 C14.4998124,226.194946 13.2440032,228.687539 11.1044764,232.856967 C8.87192669,237.026395 5.80217086,242.872658 3.70915552,247.495284 C1.61614019,252.072591 0.499865339,255.335622 0.127773724,258.779931 C-0.19780644,262.178922 0.174285175,265.759191 0.406842435,268.976902 C0.639399695,272.149293 0.639399695,275.049764 1.38358293,277.089158 C2.17427761,279.128552 3.70915552,280.397509 4.68589601,281.213266 C5.66263651,282.029024 6.03472812,282.436903 6.45333119,283.751179 C6.77891135,285.020135 7.05798006,287.240809 7.24402587,291.999395 C7.38356023,296.803301 7.38356023,304.19044 7.29053732,309.311585 C7.24402587,314.43273 7.05798006,317.333201 7.94169765,318.828757 C8.77890379,320.324313 10.5928504,320.460272 11.476568,322.182427 C12.406797,323.904582 12.406797,327.167613 12.406797,330.475963 L12.406797,339.766536 C12.406797,342.485728 12.406797,344.706402 13.2440032,345.522159 C14.1277208,346.337917 15.802133,345.794079 17.3370109,346.111318 C18.8718889,346.473877 20.2672324,347.697513 22.081179,348.60391 C23.9416371,349.464988 26.1741868,350.008826 29.1974312,349.555628 C32.2206756,349.057109 35.9881032,347.561554 38.0346071,345.884718 C40.0811109,344.253203 40.3601797,342.485728 38.7322788,340.808893 C37.104378,339.086738 33.6160191,337.409903 30.9183549,335.597108 C28.2206907,333.738994 26.4532555,331.65428 25.057912,329.841485 C23.6625684,327.98337 22.6858279,326.351855 22.4532707,324.856299 C22.2207134,323.315424 22.8253623,322.001148 23.9881486,320.822831 C25.1974463,319.644515 27.0113929,318.692797 28.2206907,316.698723 C29.3369655,314.704649 29.9416144,311.713538 30.4067289,310.671181 C30.825332,309.674144 31.1044007,310.625861 31.5230038,311.441618 C31.9416069,312.257376 32.4997443,312.937174 33.8020649,313.345053 C35.150897,313.752932 37.2904238,313.888891 39.4299506,314.25145 C41.6159889,314.614009 43.8485386,315.112528 45.6159737,316.925323 C47.3834089,318.692797 48.6392181,321.683909 49.3834013,324.493741 C50.174096,327.303572 50.4531647,329.886805 50.5926991,332.243438 C50.685722,334.554751 50.685722,336.594145 50.9647907,337.908422 C51.1508365,339.222698 51.5229281,339.766536 53.6159435,340.219735 C55.6624473,340.718253 59.2438291,341.126132 63.2903255,341.398051 C67.3368218,341.669971 71.6623868,341.80593 73.8949365,341.534011 C76.1739977,341.262092 76.313532,340.582294 75.4298144,339.358657 C74.5926083,338.135021 72.7786617,336.322226 70.8716921,333.965593 C68.9647226,331.56364 67.0112416,328.527209 64.4531118,324.357781 C61.8484705,320.188353 58.5926688,314.840609 56.7322107,309.447544 C54.8252412,304.05448 54.2671038,298.570776 52.9182717,292.543233 C51.5229281,286.515691 49.4764242,279.98963 47.9415463,275.548283 C46.360157,271.106936 45.3834165,268.750303 45.1973707,266.34835 C45.0113249,263.946396 45.5229508,261.499124 46.7322486,259.23313 C47.9415463,257.012457 49.7554929,254.927743 50.685722,252.38983 C51.5229281,249.897237 51.5229281,246.860806 51.4299052,243.597776 C51.2903709,240.289425 51.0113022,236.754475 51.3833938,234.307203 C51.7089739,231.81461 52.7322259,230.455014 56.2670962,229.684576 C59.8949895,228.959458 66.0345011,228.778179 71.1972723,227.101344 C76.313532,225.379189 80.3600283,222.116158 82.1274635,218.535888 C83.8948987,215.000939 83.2902498,211.14875 84.0809445,207.931039 C84.8716392,204.713329 86.9646545,202.130096 89.1972042,199.864103 C91.4762653,197.598109 93.8483494,195.694675 96.0808991,193.247402 C98.3599602,190.800129 100.452976,187.763698 102.127388,184.138108 C103.8018,180.512519 105.104121,176.252451 106.499464,173.034741 C107.894808,169.86235 109.429686,167.641676 111.569213,166.553999 C113.801762,165.466323 116.545938,165.466323 119.011045,165.602282 C121.383129,165.738242 123.33661,166.010161 124.731953,166.780599 C126.127297,167.505717 126.964503,168.729353 127.615664,171.085986 C128.266824,173.3973 128.685427,176.79629 128.313335,181.328277 C127.941244,185.860263 126.824969,191.479927 125.848228,197.41683 C124.871488,203.353733 124.034282,209.653194 123.615679,214.864979 C123.197076,220.076764 123.197076,224.155552 123.197076,226.874744 C123.197076,229.639256 123.197076,230.998852 123.197076,231.81461 C123.33661,232.630367 123.476144,232.902287 125.104045,233.128886 C126.824969,233.310166 130.034259,233.446125 133.010992,233.582085 C135.941213,233.718044 138.638878,233.854004 140.63887,235.12296 C142.685374,236.301277 144.127229,238.65791 144.731878,242.19286 C145.383038,245.773129 145.243504,250.531715 145.103969,256.106059 C144.964435,261.635083 144.824901,267.934545 145.522573,273.327609 C146.220244,278.765993 147.755122,283.25266 149.522557,289.416162 C151.429527,295.579665 153.522542,303.374682 154.73184,309.855423 C155.894626,316.381484 156.127184,321.547949 155.615558,326.125256 C155.05742,330.702563 153.662077,334.690711 151.150458,338.135021 C148.592328,341.534011 144.964435,344.389163 141.941191,346.383237 C138.917946,348.377311 136.499351,349.464988 135.290053,350.280746 C133.987732,351.096503 133.848198,351.640342 134.452847,352.002901 C135.010984,352.36546 136.266794,352.456099 139.010969,352.410779 C141.708633,352.36546 145.941176,352.09354 149.243489,351.866941 C152.545802,351.640342 154.917886,351.504382 156.034161,352.09354 C157.150435,352.592059 157.010901,353.861015 156.778344,355.220611 C156.452764,356.580207 156.034161,358.075763 156.127184,359.02748 C156.127184,359.979197 156.778344,360.432396 158.173687,360.704315 C159.569031,360.976235 161.801581,361.112194 164.127153,360.885595 C166.452726,360.704315 168.82481,360.115157 171.010848,358.800881 C173.196886,357.395965 175.150367,355.220611 176.406177,352.818658 C177.661986,350.416705 178.220123,347.833473 178.220123,343.935964 C178.220123,340.038455 177.661986,334.826671 177.289894,329.524246 C176.964314,324.131182 176.82478,318.692797 177.382917,313.435693 C177.941055,308.133268 179.196864,303.102763 180.313139,297.30182 C181.475925,291.455557 182.452665,284.884176 182.91778,278.765993 C183.429406,272.602491 183.429406,266.846868 182.91778,261.816363 C182.452665,256.876497 181.475925,252.616429 181.150345,248.9002 C180.917787,245.229291 181.336391,242.0569 181.615459,240.380065 C181.894528,238.65791 182.034062,238.385991 182.638711,238.068752 C183.289871,237.706193 184.359635,237.298314 185.336375,237.026395 C186.220093,236.754475 186.917765,236.618516 187.661948,234.987001 C188.35962,233.310166 189.057292,230.183095 190.080543,226.784104 C191.150307,223.339794 192.54565,219.623565 193.196811,216.179255 C193.80146,212.644306 193.661925,209.381275 194.220063,207.341881 C194.7782,205.257167 196.034009,204.441409 197.801444,203.081813 C199.56888,201.722217 201.801429,199.818783 203.75491,197.598109 C205.708391,195.422756 207.429315,192.975483 209.19675,185.724304 C210.964185,178.473125 212.778132,166.41804 213.475804,156.08511 C214.31301,145.75218 214.033941,137.141405 213.429292,127.760192 C212.917666,118.378979 212.08046,108.272649 210.359537,97.4865202 C208.685124,86.6550716 206.173506,75.1891449 201.754918,67.4394475 C197.33633,59.68975 191.010773,55.7469214 186.034047,53.2996486 C181.01081,50.8070558 177.382917,49.8553386 174.685253,48.677022 C172.080612,47.5440253 170.359688,46.1844292 168.406207,44.5982338" id="Fill-937" fill="#16819E"></path>
                <path d="M501.715417,132.277282 C502.029281,130.061017 503.598601,126.603644 504.719544,123.101946 C505.840487,119.644573 506.647566,116.187199 506.871755,112.064947 C507.095943,107.942694 506.737241,103.155562 505.840487,99.6538636 C504.988571,96.1521651 503.598601,93.8472496 501.894768,92.0742377 C500.146097,90.2569006 498.173238,88.9714669 495.438137,87.9076598 C492.703037,86.7995274 489.205695,85.9573467 486.515432,86.001672 C483.825169,86.0459973 481.941985,87.0211539 479.969126,88.528214 C477.996266,90.0352741 475.933732,92.118563 474.409249,94.4234785 C472.839929,96.6840686 471.898337,99.1662853 471.405122,101.515526 C470.86707,103.820441 470.86707,105.992381 471.180934,108.607574 C471.44996,111.178441 471.988013,114.236886 472.839929,116.364501 C473.781521,118.44779 474.947302,119.644573 475.799218,120.930006 C476.695973,122.21544 477.278863,123.678175 477.413376,125.052259 C477.592727,126.470668 477.368538,127.889078 477.099512,129.440463 C476.830486,131.036174 476.471784,132.764861 475.530192,134.360571 C474.498925,136.000607 472.839929,137.551993 471.718986,138.748776 C470.553206,140.034209 469.925478,141.009366 468.89421,141.851546 C467.952618,142.738052 466.607487,143.491582 464.903654,144.200787 C463.199821,144.909992 461.137286,145.530546 459.523128,146.505703 C457.953808,147.480859 456.877703,148.810618 455.487734,151.071208 C454.052927,153.376124 452.483607,156.61187 451.272989,159.271388 C450.06237,161.886581 449.300129,163.96987 448.806914,165.166653 C448.313699,166.363436 448.089511,166.673713 447.103081,167.028315 C446.116651,167.338592 444.367981,167.648869 442.664147,168.092122 C440.960314,168.535375 439.301319,169.067279 437.687161,169.820809 C436.028166,170.574339 434.414008,171.549496 433.606929,172.480327 C432.844688,173.411158 432.934363,174.253339 433.158552,174.873893 C433.38274,175.450122 433.741442,175.760399 434.189819,175.9377 C434.638196,176.115001 435.131411,176.115001 436.252354,176.115001 C437.328459,176.115001 438.987455,176.115001 440.242911,176.159326 C441.498367,176.203652 442.350283,176.336628 443.112525,177.045832 C443.829928,177.710712 444.367981,179.040471 444.906033,181.478362 C445.488923,183.916253 445.982138,187.506603 446.430515,190.033145 C446.878893,192.604012 447.237594,194.111072 447.954998,195.573807 C448.762077,197.036541 449.927857,198.454951 451.093638,200.227963 C452.214581,202.000975 453.335523,204.172914 453.873576,207.275685 C454.456466,210.378456 454.456466,214.367733 453.783901,216.229395 C453.156173,218.046732 451.811041,217.736455 450.824611,218.357009 C449.838182,219.021889 449.210454,220.661925 449.075941,222.080334 C448.986265,223.498744 449.434642,224.651202 449.927857,225.626358 C450.510747,226.601515 451.183313,227.39937 451.811041,228.684804 C452.483607,229.970237 453.156173,231.8319 453.828738,233.959514 C454.546142,236.175779 455.308383,238.657996 455.711922,241.095887 C456.070624,243.533778 456.070624,245.883019 456.249975,248.498211 C456.429326,251.113404 456.74319,253.950223 457.146729,256.210813 C457.595106,258.471403 458.177997,260.20009 458.581536,261.308222 C458.940238,262.372029 459.164426,262.815282 459.298939,264.455318 C459.47829,266.095354 459.612803,268.887848 460.106018,271.104113 C460.599233,273.320378 461.45115,274.960414 462.303066,276.157197 C463.110145,277.309655 463.872386,278.10751 463.872386,279.126992 C463.872386,280.146474 463.110145,281.476233 462.347904,282.584365 C461.585663,283.736823 460.823422,284.711979 460.375045,285.731461 C459.926667,286.750943 459.836992,287.859075 460.150856,288.656931 C460.509558,289.454786 461.226961,290.031015 462.168553,290.74022 C463.110145,291.405099 464.231088,292.291605 464.903654,293.178111 C465.621057,294.020292 465.979759,294.906798 465.621057,295.793304 C465.262356,296.724135 464.320764,297.699291 463.379171,298.142544 C462.572093,298.585797 461.809851,298.497147 460.509558,298.098219 C459.164426,297.699291 457.281242,297.078737 454.546142,297.52199 C451.811041,297.920918 448.179186,299.427978 445.847625,301.023689 C443.471226,302.70805 442.350283,304.436737 441.453529,306.785977 C440.511937,309.090893 439.749696,311.972037 439.301319,315.252109 C438.852942,318.532181 438.763266,322.12253 439.032292,325.358277 C439.301319,328.594023 439.973884,331.519493 441.139665,334.622264 C442.260608,337.725035 443.919603,340.960781 445.847625,343.531649 C447.730809,346.146841 449.927857,348.097154 451.811041,349.205287 C453.649387,350.40207 455.218707,350.712347 456.877703,350.889648 C458.491861,351.1556 460.285369,351.24425 462.303066,350.800997 C464.320764,350.40207 466.607487,349.382588 468.625184,347.786877 C470.642881,346.146841 472.391552,343.886251 473.826359,340.78348 C475.17149,337.725035 476.15792,333.780083 476.292433,329.968108 C476.471784,326.111807 475.799218,322.344157 474.99214,319.285711 C474.185061,316.227266 473.198631,313.92235 473.01928,312.902868 C472.839929,311.794736 473.557333,311.927712 474.633438,312.193664 C475.799218,312.548266 477.503052,313.124495 479.206885,313.656398 C480.86588,314.188302 482.614551,314.720205 484.049358,315.695362 C485.439327,316.670519 486.605108,318.088928 487.995077,319.241386 C489.429884,320.349518 491.178555,321.236024 493.285927,322.03388 C495.438137,322.87606 497.993887,323.62959 500.325448,323.984193 C502.657009,324.38312 504.898895,324.38312 507.185619,324.604747 C509.472342,324.826373 511.893579,325.269626 514.045789,325.934506 C516.197999,326.64371 518.036346,327.618867 519.022775,328.726999 C520.009205,329.879457 520.143718,331.209216 520.009205,332.361674 C519.91953,333.602782 519.560828,334.666589 519.112451,335.59742 C518.708911,336.528252 518.170859,337.281782 517.36378,337.592059 C516.646376,337.902336 515.615109,337.813685 514.494166,337.725035 C513.283548,337.592059 511.938416,337.503408 510.413934,337.725035 C508.844614,337.902336 506.96143,338.478565 505.257597,339.365071 C503.598601,340.295902 502.029281,341.581336 500.415124,343.487323 C498.845804,345.348986 497.186808,347.875528 496.290054,350.224769 C495.348462,352.574009 495.124273,354.701624 495.617488,356.873563 C496.110703,359.045503 497.321321,361.217442 498.890641,364.054261 C500.459961,366.846755 502.477659,370.348453 505.347272,372.298767 C508.172048,374.204754 511.893579,374.648007 514.763192,374.825308 C517.543131,375.09126 519.560828,375.09126 521.533687,374.559357 C523.506547,374.027453 525.479406,372.919321 526.914213,371.589562 C528.438695,370.215478 529.425125,368.619767 530.366717,366.447827 C531.308309,364.231562 532.160226,361.527719 532.115388,358.513599 C532.07055,355.499479 531.084121,352.130756 529.828664,349.515564 C528.528371,346.900371 527.003888,345.083034 526.107134,343.753275 C525.165542,342.467842 524.80684,341.669986 524.80684,341.093757 C524.80684,340.517528 525.165542,340.074275 525.479406,339.143444 C525.838108,338.123962 526.151972,336.616902 526.241647,333.381156 C526.331323,330.101084 526.241647,325.092325 526.465836,322.78741 C526.690024,320.482494 527.228077,320.792771 528.214507,321.236024 C529.200936,321.767928 530.635743,322.432807 532.743116,323.718241 C534.805651,325.003674 537.540751,326.953987 539.33426,330.189734 C541.127769,333.381156 542.024523,337.813685 543.010953,341.714311 C544.04222,345.703588 545.118325,349.160961 546.328943,351.953455 C547.494724,354.701624 548.839855,356.784912 551.171417,358.247647 C553.547816,359.799033 556.955482,360.774189 560.004446,361.306093 C563.098249,361.837996 565.833349,361.926647 568.299424,361.394743 C570.765498,360.774189 572.962546,359.488756 575.473458,358.735226 C578.029208,357.981696 580.853984,357.760069 583.544247,357.627093 C586.189672,357.538443 588.745421,357.538443 591.570197,356.829238 C594.350136,356.120033 597.3991,354.701624 599.551311,353.549166 C601.703521,352.352383 602.869302,351.377226 603.49703,350.269094 C604.124758,349.160961 604.124758,348.008504 603.541867,347.299299 C603.09349,346.678745 602.151898,346.590094 599.102934,345.260335 C596.098807,343.974902 591.076983,341.492685 588.252207,340.02995 C585.472268,338.567215 584.889378,338.123962 584.754865,337.547734 C584.575514,336.971505 584.799703,336.173649 585.292917,335.686071 C585.786132,335.198493 586.548373,335.021192 588.521233,335.331469 C590.494092,335.641746 593.67757,336.528252 596.367833,337.193131 C599.058096,337.813685 601.255144,338.256938 603.362516,338.345589 C605.514727,338.478565 607.622099,338.256938 610.133011,337.193131 C612.643923,336.040673 615.603212,334.134686 618.248638,332.804927 C620.894063,331.519493 623.180786,330.854614 626.364264,329.879457 C629.502904,328.771325 633.583136,327.39724 635.780184,326.333433 C637.977232,325.269626 638.291096,324.471771 637.797881,323.496614 C637.304666,322.521458 636.004373,321.324675 633.852162,320.438169 C631.74479,319.463012 628.785501,318.842458 626.095238,317.778651 C623.360137,316.803494 620.983738,315.385085 618.831528,313.656398 C616.724155,311.927712 614.840971,309.844423 613.585515,308.027086 C612.285222,306.165423 611.657494,304.525387 611.792007,303.328604 C611.881682,302.176146 612.733599,301.378291 612.733599,298.497147 C612.733599,295.527352 611.881682,290.429943 611.164279,283.116269 C610.446875,275.802595 609.908823,266.272656 609.415608,257.673548 C608.922393,249.030115 608.474016,241.361839 606.859858,234.713044 C605.290538,228.019924 602.600275,222.390611 599.416798,218.755937 C596.322995,215.121263 592.825653,213.525552 589.193799,212.461745 C585.561944,211.442263 581.840413,210.99901 578.387909,209.669251 C574.935405,208.295167 571.70709,206.034577 568.433937,203.375059 C565.071108,200.715541 561.573766,197.701421 558.300613,195.884084 C555.072298,194.111072 552.157846,193.534843 550.050474,192.869964 C547.987939,192.160759 546.732483,191.274253 545.880566,189.456916 C544.983812,187.595253 544.490597,184.802759 543.638681,183.251374 C542.831602,181.744314 541.710659,181.522687 540.051663,180.990784 C538.437506,180.45888 536.240458,179.572374 534.133085,175.583098 C532.07055,171.549496 530.097691,164.413123 528.169669,158.517858 C526.241647,152.578268 524.358463,147.924112 522.07174,144.511064 C519.695341,141.098016 516.870565,138.926077 513.597412,137.817944 C510.369096,136.665487 506.737241,136.576836 504.450518,136.000607 C502.25347,135.468704 501.356716,134.493547 501.715417,132.277282" id="Fill-874" fill="#47A14E"></path>
            </g>
        </g>
    </g>
</svg>