<svg width="19" height="15" fill="none" xmlns="http://www.w3.org/2000/svg"><path d="M6.605 14.979c1.31 0 2.541-.206 3.692-.618 1.15-.413 2.133-.965 2.949-1.657a11.108 11.108 0 002.109-2.389c.59-.9 1.03-1.84 1.32-2.82a10.34 10.34 0 00.423-3.42 7.706 7.706 0 001.852-1.896 7.4 7.4 0 01-2.126.568 3.563 3.563 0 001.623-2.02 7.271 7.271 0 01-2.343.885C15.372.84 14.473.455 13.405.455c-1.021 0-1.892.357-2.612 1.072a3.519 3.519 0 00-1.08 2.593c0 .272.03.552.091.84A10.347 10.347 0 015.56 3.83a10.452 10.452 0 01-3.367-2.706 3.571 3.571 0 00-.503 1.85c0 .628.15 1.21.446 1.747.297.537.698.972 1.2 1.305a3.683 3.683 0 01-1.668-.465v.045c0 .885.28 1.663.84 2.332a3.637 3.637 0 002.12 1.265c-.32.083-.644.125-.971.125-.214 0-.446-.019-.698-.057.237.734.67 1.337 1.303 1.81a3.617 3.617 0 002.15.732c-1.342 1.044-2.87 1.566-4.584 1.566a7.95 7.95 0 01-.892-.045c1.715 1.097 3.605 1.645 5.67 1.645z" fill="#fff"/></svg>