<svg width="40" height="39" viewBox="0 0 40 39" fill="none" xmlns="http://www.w3.org/2000/svg">
<ellipse cx="20.2" cy="19.7178" rx="18.2" ry="17.7178" stroke="#8A0DA6" stroke-width="2.4"/>
<path d="M17.2734 28.2563V27.7664L17.6603 27.6632C18.0041 27.5601 18.2362 27.4053 18.3565 27.199C18.4769 26.9927 18.5456 26.7177 18.5628 26.3738V21.6288C18.5628 21.0959 18.5628 20.6059 18.5628 20.1589C18.5628 19.6947 18.5542 19.222 18.537 18.7406C18.537 18.3967 18.4683 18.1303 18.3307 17.9412C18.2104 17.7349 17.9783 17.5973 17.6345 17.5286L17.2734 17.4512V16.987L21.7863 15.4913L22.0958 15.775L22.0184 19.4369V26.3996C22.0184 26.7435 22.0786 27.0185 22.1989 27.2248C22.3365 27.4311 22.5686 27.5859 22.8952 27.689L23.1789 27.7664V28.2563H17.2734Z" fill="#8A0DA6"/>
<circle cx="20" cy="12" r="2" fill="#8A0DA6"/>
</svg>
